Coordinates
version=1
nRows=6
nColumns=36
inDegrees=yes

Units are S.I. units (second, meters, Newtons, ...)
If the header above contains a line with 'inDegrees', this indicates whether rotational values are in degrees (yes) or radians (no).

endheader
time	pelvis_tilt	pelvis_list	pelvis_rotation	pelvis_tx	pelvis_ty	pelvis_tz	hip_flexion_r	hip_adduction_r	hip_rotation_r	knee_angle_r	knee_angle_r_beta	ankle_angle_r	subtalar_angle_r	mtp_angle_r	hip_flexion_l	hip_adduction_l	hip_rotation_l	knee_angle_l	knee_angle_l_beta	ankle_angle_l	subtalar_angle_l	mtp_angle_l	lumbar_extension	lumbar_bending	lumbar_rotation	arm_flex_r	arm_add_r	arm_rot_r	elbow_flex_r	pro_sup_r	arm_flex_l	arm_add_l	arm_rot_l	elbow_flex_l	pro_sup_l
     26.70000000	     -1.36921430	      6.57040271	    359.96457277	      1.21052609	      1.02916757	      0.69075311	     15.32612729	     -5.71929721	     38.54695770	     58.67118434	      1.02400534	      1.01805840	    -12.71580738	     -7.49999987	      7.31286617	      7.91942125	    -39.03404942	      2.63831142	      0.04604722	      6.55096798	    -12.72825481	     -7.49999987	     -9.73824613	    -16.80637366	     38.47448956	      3.86342313	     -7.82542539	     16.51518923	     25.09047973	     94.86880789	     -6.21581061	      0.75171980	      3.01220294	     13.97480837	     91.70311068
     26.71666670	     -1.77647026	      5.09250244	    359.96610399	      1.22544777	      1.02754251	      0.67388913	     18.89236459	     -2.27237731	     39.35488572	     61.39376031	      1.07152326	      3.91319768	    -15.43850614	     -7.49999987	      6.85624065	      7.46453432	    -39.06263673	      2.45782081	      0.04289707	      5.28166830	    -14.08795031	     -7.49999987	     -8.52952510	    -14.75182250	     38.76009757	      2.72680455	     -7.51537949	     17.80808649	     23.98518487	     93.58706810	     -5.44541862	      1.08608055	      5.01095167	     14.44494072	     92.09797666
     26.73333330	     -2.08868067	      3.58609739	    359.96862389	      1.23828682	      1.02437908	      0.66250257	     21.96312139	      1.13366873	     39.67459024	     63.91504339	      1.11552795	      6.94327968	    -13.99016907	     -7.49999987	      6.14345679	      6.98308894	    -39.11638171	      1.81879039	      0.03174388	      3.71641464	    -14.99732199	     -7.49999987	     -7.45346149	    -12.91112391	     39.02845924	      1.70808049	     -7.20242812	     18.48064214	     23.26599272	     92.22401228	     -4.82101161	      1.26124331	      4.17445750	     16.89339427	     91.93762437
     26.75000000	     -3.85331350	      1.79241197	    359.97084437	      1.24726200	      1.02149097	      0.64627327	     26.87952948	      4.64734459	     39.78559333	     65.53078787	      1.14372801	     10.46824450	    -13.25064108	     -7.49999987	      6.99900623	      6.27465985	    -39.16624970	      1.06673248	      0.01861799	      2.13478244	    -16.20397359	     -7.49999987	     -4.52464184	    -10.18834038	     39.94025222	      0.22391769	     -6.98251857	     19.20220152	     22.49363527	     91.47628899	     -3.76227836	      1.09408879	      6.24758955	     19.23059914	     93.27162714
     26.76666670	     -5.03925976	      0.08878089	    359.97291594	      1.25840392	      1.02038638	      0.63747256	     31.11936725	      8.47673449	     39.83362789	     66.81902253	      1.16621195	     13.63204348	    -11.82281226	     -7.49999987	      7.36292346	      5.35747005	    -39.21073539	      0.70187371	      0.01225001	      0.59584750	    -17.37372587	     -7.49999987	     -2.70557171	     -8.21764825	     39.97238816	     -0.29008166	     -6.47590728	     19.55445596	     21.54069769	     89.22806114	     -1.92255160	      0.95664596	      5.62040706	     23.69477569	     91.43834348
     26.78333330	     -7.86059315	     -2.14654354	    359.97440221	      1.26115179	      1.02014463	      0.62684471	     37.68324913	     12.89702748	     39.84967608	     66.92700855	      1.16809666	     16.00363989	    -10.59924596	     -7.49999987	      9.77693463	      3.84152875	    -39.16121607	      0.59803400	      0.01043766	     -0.42442255	    -18.42403140	     -7.49999987	      1.05476971	     -5.47906460	     40.58349722	     -1.24593141	     -6.18542302	     19.87330242	     20.91566400	     89.50489289	     -0.49805406	      0.76217965	      4.01597813	     27.96592530	     98.20887216
